
        <svg xmlns="http://www.w3.org/2000/svg" xmlns:xlink="http://www.w3.org/1999/xlink" version="1.1" width="3162.251474599231" 
        height="914.0437079181559" viewBox="0 -16.225147459923097 3162.251474599231 914.0437079181559">
			
			<g transform="scale(8.112573729961548) translate(10, 10)">
				<defs id="SvgjsDefs5773"></defs><g id="SvgjsG5774" featureKey="QMusi1-0" transform="matrix(0.9578185448645951,0,0,0.9578185448645951,-3.789092724322975,-6.790476139722715)" fill="#1ed760"><g xmlns="http://www.w3.org/2000/svg"><g><path d="M71.927,74.541c5.618,0,10.2,4.583,10.2,10.257c0,5.619-4.582,10.202-10.2,10.202c-5.673,0-10.255-4.583-10.255-10.202    C61.673,79.124,66.255,74.541,71.927,74.541z M71.927,86.816c1.091,0,2.018-0.873,2.018-2.019c0-1.146-0.927-2.073-2.018-2.073    c-1.145,0-2.073,0.927-2.073,2.073C69.855,85.943,70.782,86.816,71.927,86.816z"></path><path d="M30.091,84.798c0-1.146-0.873-2.073-2.018-2.073S26,83.652,26,84.798c0,1.146,0.927,2.019,2.073,2.019    S30.091,85.943,30.091,84.798z M17.818,84.798c0-5.674,4.582-10.257,10.255-10.257s10.2,4.583,10.2,10.257    c0,5.619-4.527,10.202-10.2,10.202S17.818,90.417,17.818,84.798z"></path><path d="M32.055,24.565l1.309-0.6c0.055,0,0.055-0.055,0.109-0.055c0.055,0,0.055-0.055,0.109-0.055    c0.109-0.055,0.218-0.055,0.327-0.109l0.927-0.436c0.982-0.491,1.582-1.473,1.582-2.455l-0.273-1.146l-0.055-0.164L28.4,23.038    l0.109,0.164c0.436,1.037,1.418,1.582,2.455,1.582L32.055,24.565z M33.8,53.099c-2.509,0-4.745,1.746-5.291,4.201L28.4,57.573    l-2.891,9.329c-0.491,1.691-2.073,2.837-3.873,2.837h-3.055c-3,0-5.4,2.401-5.4,5.51v9.548c0,2.237-1.855,4.092-4.091,4.092    C6.8,88.889,5,87.034,5,84.798V75.25c0-7.584,6.055-13.694,13.582-13.694h0.055l0.818-2.619c-3.982-0.709-7.364-3.437-8.836-7.311    c-0.545-1.419-0.818-2.837-0.818-4.31c0-3.11,1.255-6.056,3.327-8.238c2.073-2.128,5.127-3.546,8.455-3.546h7.036    c1.091,0,1.909-0.382,2.564-1.091c0.436-0.436,0.709-0.982,0.873-1.528c-0.382,0.055-0.764,0.055-1.091,0.055    c-4.145,0-8.073-2.346-9.927-6.329l-1.745-3.928c-0.818-1.8-0.273-3.765,1.2-4.856l-1.255-2.728    c-0.927-2.073-0.055-4.528,2.018-5.456c2.073-0.927,4.473,0,5.4,2.019l1.2,2.619l2.018-0.927l-1.2-2.619    c-0.927-2.019,0-4.474,2.018-5.401c2.073-0.927,4.527,0,5.455,2.019l1.2,2.728c0.218-0.109,0.491-0.109,0.764-0.109    c0.327,0,0.655,0.055,0.982,0.164c0.164,0,0.327,0.055,0.491,0.109c0.436,0.164,0.818,0.436,1.145,0.709    c0.164,0.109,0.382,0.327,0.491,0.491c0.273,0.273,0.436,0.6,0.6,0.927l1.8,3.928c0.655,1.473,0.982,3.001,0.982,4.528    c0,3.383-1.636,6.656-4.473,8.729c0.218,0.764,0.273,1.582,0.273,2.346c0,3.11-1.255,6.056-3.327,8.238    c-2.073,2.128-5.127,3.546-8.455,3.546h-7.036c-1.091,0-1.909,0.436-2.564,1.091c-0.655,0.655-1.036,1.582-1.036,2.51L18.2,48.68    c0.545,1.364,1.909,2.291,3.382,2.291h0.927c2.455-3.71,6.655-6.056,11.291-6.056h9.109c6.655,0,12.982,2.564,17.727,7.147    l0.273,0.273l11.291,9.22h9.218c7.473,0,13.527,6.111,13.582,13.694v9.548c0,2.237-1.855,4.092-4.091,4.092    c-2.291,0-4.091-1.855-4.091-4.092V75.25c0-3.11-2.455-5.51-5.4-5.51H70.727c-0.927,0-1.855-0.327-2.564-0.927L55.455,58.391    l-0.273-0.273c-3.327-3.219-7.691-5.019-12.273-5.019H33.8z"></path></g></g></g><g id="SvgjsG5775" featureKey="UyNsn2-0" transform="matrix(2.974983356804684,0,0,2.974983356804684,100.56741164283643,-14.87610839341545)" fill="#104f55"><path d="M9.2773 20 l-3.6719 -6.2109 l-0.84961 0 l0 6.2109 l-2.9297 0 l0 -14.111 l5.1172 0 c3.1934 0 4.541 1.8848 4.541 4.2188 c0 1.8945 -1.0742 3.125 -2.9883 3.5352 l4.248 6.3574 l-3.4668 0 z M4.7559 8.32 l0 3.3691 l1.7285 0 c1.5625 0 2.1973 -0.66406 2.1973 -1.6797 c0 -1.0059 -0.63477 -1.6895 -2.1973 -1.6895 l-1.7285 0 z M23.96440625 14.834 l-0.029297 0.67383 l-7.4414 0 c0.11719 1.6699 1.2305 2.4707 2.5684 2.4707 c1.0059 0 1.7871 -0.46875 2.168 -1.3574 l2.5781 0.38086 c-0.66406 2.0313 -2.4707 3.1934 -4.7266 3.1934 c-3.2422 0 -5.3613 -1.9141 -5.3613 -5.2148 s2.1777 -5.2344 5.2734 -5.2344 c2.8418 0 4.9609 1.5723 4.9707 5.0879 z M19.01370625 11.7383 c-1.2793 0 -2.168 0.5957 -2.4414 1.9336 l4.6094 0 c-0.14648 -1.2793 -1.0156 -1.9336 -2.168 -1.9336 z M30.6445375 20.18555 c-3.1543 0 -5.3809 -2.0996 -5.3809 -5.2148 c0 -3.125 2.2266 -5.2051 5.3809 -5.2051 c2.5391 0 4.4434 1.3184 4.9316 3.6914 l-2.5977 0.2832 c-0.3125 -1.2012 -1.1816 -1.7578 -2.3633 -1.7578 c-1.5137 0 -2.5391 1.1914 -2.5391 2.9883 c0 1.7871 1.0254 2.9883 2.5391 2.9883 c1.1816 0 2.0508 -0.56641 2.3633 -1.7578 l2.5977 0.2832 c-0.48828 2.373 -2.4414 3.7012 -4.9316 3.7012 z M43.652346875 9.766 c2.2461 0 3.5938 1.25 3.5938 3.7598 l0 6.4746 l-2.8223 0 l0 -6.0156 c0 -1.4746 -0.82031 -1.9629 -1.8262 -1.9629 c-1.0449 0 -2.1875 0.51758 -2.207 2.4414 l0 5.5371 l-2.8125 0 l0 -15 l2.8125 0 l0 6.1621 c0.71289 -0.86914 1.8359 -1.3965 3.2617 -1.3965 z M58.18359375 17.2754 c0 1.2305 0.11719 2.0117 0.24414 2.4512 l0 0.27344 l-2.627 0 l-0.22461 -1.0938 c-0.75195 0.9082 -2.0508 1.2891 -3.2227 1.2891 c-1.582 0 -3.125 -0.70313 -3.125 -2.793 c0 -2.0801 1.5527 -2.7832 3.6523 -3.2422 l1.6504 -0.37109 c0.71289 -0.16602 0.9668 -0.41016 0.9668 -0.82031 c0 -0.98633 -0.89844 -1.2598 -1.6895 -1.2598 c-1.0156 0 -1.7871 0.40039 -1.9629 1.5332 l-2.4902 -0.44922 c0.41992 -2.0801 1.9434 -3.0273 4.6094 -3.0273 c2.0117 0 4.2188 0.5957 4.2188 3.623 l0 3.8867 z M53.23239375 18.291 c1.3379 0 2.4121 -0.88867 2.4121 -2.8809 l-2.3828 0.67383 c-0.78125 0.18555 -1.3477 0.45898 -1.3477 1.1328 c0 0.72266 0.5957 1.0742 1.3184 1.0742 z M63.613290625 11.5527 c0.50781 -0.88867 1.8262 -1.709 3.2813 -1.709 l0 2.5098 c-2.1289 0 -3.1445 0.625 -3.1445 2.7539 l0 4.8926 l-2.832 0 l0 -10.039 l2.6953 0 l0 1.5918 z M75.45894375 9.961 l2.6758 0 l0 9.2871 c0 3.9063 -2.1191 5.4883 -5.3223 5.4883 c-2.8809 0 -4.4434 -1.2109 -5.1758 -3.1152 l2.334 -0.99609 c0.56641 1.2988 1.3867 1.9238 2.7344 1.9238 c1.7773 0 2.6074 -1.1133 2.6074 -3.0957 l0 -1.1719 c-0.58594 0.80078 -1.7383 1.3672 -3.0469 1.3672 c-2.4902 0 -4.5801 -1.9629 -4.5801 -4.9609 c0 -3.0078 2.0996 -4.9219 4.5996 -4.9219 c1.4063 0 2.5586 0.625 3.1055 1.5234 z M72.98824375 17.373 c1.4648 0 2.5977 -1.1914 2.5977 -2.6855 c0 -1.5039 -1.1133 -2.6953 -2.5977 -2.6953 c-1.4746 0 -2.5879 1.1426 -2.5879 2.6953 c0 1.5332 1.1328 2.6855 2.5879 2.6855 z M90.497609375 14.834 l-0.029297 0.67383 l-7.4414 0 c0.11719 1.6699 1.2305 2.4707 2.5684 2.4707 c1.0059 0 1.7871 -0.46875 2.168 -1.3574 l2.5781 0.38086 c-0.66406 2.0313 -2.4707 3.1934 -4.7266 3.1934 c-3.2422 0 -5.3613 -1.9141 -5.3613 -5.2148 s2.1777 -5.2344 5.2734 -5.2344 c2.8418 0 4.9609 1.5723 4.9707 5.0879 z M85.546909375 11.7383 c-1.2793 0 -2.168 0.5957 -2.4414 1.9336 l4.6094 0 c-0.14648 -1.2793 -1.0156 -1.9336 -2.168 -1.9336 z"></path></g><g id="SvgjsG5776" featureKey="sloganFeature-0" transform="matrix(2.25,0,0,2.25,104.24500060081482,36.220001459121704)" fill="#104f55"><path d="M6.14 20.26 c-3.14 0 -5.36 -2.1 -5.36 -5.28 c0 -3 2.06 -5.3 5.18 -5.3 c3.26 0 5.12 2.26 5.12 5.1 c0 0.3 -0.02 0.54 -0.06 0.84 l-8.18 0 c0.14 1.66 1.3 2.84 3.34 2.84 c1.5 0 2.44 -0.74 2.86 -1.62 l1.92 0.56 c-0.62 1.36 -2.2 2.86 -4.82 2.86 z M2.84 14.219999999999999 l6.18 -0.02 c-0.12 -1.54 -1.22 -2.72 -3.06 -2.72 c-1.8 0 -2.98 1.3 -3.12 2.74 z M17.62 20.26 c-2.84 0 -5 -2.26 -5 -5.3 c0 -3.02 2.16 -5.28 5 -5.28 c1.62 0 2.86 0.7 3.62 1.78 l0 -1.52 l2.08 0 l0 10.06 l-2.08 0 l0 -1.52 c-0.76 1.08 -2 1.78 -3.62 1.78 z M17.96 18.38 c1.84 0 3.32 -1.44 3.32 -3.42 c0 -1.96 -1.48 -3.4 -3.32 -3.4 c-1.92 0 -3.28 1.42 -3.28 3.4 s1.36 3.42 3.28 3.42 z M29.939999999999998 20.26 c-2.38 0 -4.24 -1.42 -4.74 -3.06 l1.9 -0.56 c0.36 1.06 1.46 1.9 2.9 1.9 c1.28 0 2.1 -0.64 2.1 -1.36 c0 -0.62 -0.4 -0.94 -1.3 -1.2 l-2.7 -0.8 c-1.34 -0.4 -2.4 -1.14 -2.4 -2.58 c0 -1.6 1.7 -2.92 3.84 -2.92 c2.18 0 3.76 1.08 4.36 2.54 l-1.86 0.54 c-0.38 -0.76 -1.26 -1.4 -2.52 -1.4 c-1.06 0 -1.76 0.62 -1.76 1.22 c0 0.5 0.4 0.78 1.08 1 l2.68 0.78 c1.42 0.4 2.64 1.04 2.64 2.74 c0 1.8 -1.74 3.16 -4.22 3.16 z M43.94 9.94 l2.24 0 l-6.12 14.26 l-2.16 0 l1.88 -4.42 l-4.6 -9.84 l2.28 0 l3.36 7.48 z"></path></g>
			</g>
		</svg>
	